<?xml version="1.0" encoding="UTF-8" standalone="no"?>
<svg xmlns="http://www.w3.org/2000/svg" width="197.75713" height="118.8974" version="1.0">
  <g fill-rule="evenodd" transform="translate(-43.3 -130.1262) scale(.34038)">
    <path fill="#fff" d="M388.664 426.238v.0217h-.0087v-.0218c-36.067-.1065-68.7832 14.4352-92.5181 38.0283-23.7357 23.5938-38.4736 56.2251-38.5818 92.294h.0217v.0087h-.0217c-.1065 36.0669 14.4351 68.7832 38.0282 92.5181 23.594 23.7356 56.2251 38.4737 92.2941 38.5818v-.0218h.0028l.0059.0001-.0001.0217c36.0662.1066 68.7821-14.4347 92.517-38.0282 23.7356-23.5939 38.4733-56.2247 38.5814-92.294l-.0218-.0001v-.0028l.0001-.0059.0217.0001c.1065-36.0666-14.4352-68.7832-38.0279-92.5181-23.5935-23.7357-56.2242-38.4737-92.2928-38.5818z" class="fil0"/>
    <path fill-rule="nonzero" d="M388.695 415.102h.0028l-.0001.0217c39.1779.1178 74.5918 16.0965 100.172 41.8306 25.5793 25.7334 41.345 61.2405 41.2295 100.416h.0218v.0059l-.0001.0028h-.0217c-.1178 39.1783-16.0961 74.5926-41.8302 100.173-25.733 25.5797-61.2401 41.3453-100.415 41.2299v.0217h-.0087v-.0218c-39.1783-.1178-74.5926-16.0964-100.173-41.8306-25.58-25.7337-41.3453-61.2404-41.2299-100.416l-.0217-.0001v-.0087l.0218.0001c.1178-39.1783 16.0964-74.5926 41.8306-100.173 25.7337-25.5801 61.2404-41.3453 100.416-41.2299l.0001-.0217h.0059l-.0001.0001zm-.0305 11.1357-.0001.0217h-.0087l.0001-.0218c-36.067-.1065-68.7832 14.4352-92.5181 38.0283-23.7356 23.5939-38.4737 56.2251-38.5818 92.294l.0218.0001v.0027l-.0001.006-.0217-.0001c-.1065 36.067 14.4351 68.7832 38.0282 92.5181 23.5939 23.7356 56.2251 38.4737 92.294 38.5818l.0001-.0218h.0028l.0059.0001-.0001.0217c36.0662.1065 68.7821-14.4347 92.5169-38.0282 23.7357-23.5939 38.4733-56.2247 38.5814-92.294l-.0217-.0001v-.0087l.0218.0001c.1065-36.0666-14.4351-68.7833-38.0279-92.5181-23.5935-23.7357-56.2242-38.4737-92.2928-38.5818z" class="fil1"/>
    <path fill="#fff" d="m388.532 470.417-.0001.0111h-.0087l.0001-.0111c-23.8801-.0702-45.5388 9.5559-61.2491 25.1732-15.712 15.6183-25.467 37.2211-25.5386 61.1016h.011v.0086l-.011.0001c-.0702 23.8784 9.5551 45.5371 25.1712 61.2483 15.6175 15.7119 37.2203 25.4684 61.1027 25.5401v-.011h.0087v.011c23.8792.0702 45.5375-9.5559 61.2479-25.1732 15.712-15.6183 25.4672-37.221 25.539-61.1015l-.0111-.0001.0001-.0027v-.006l.011.0001c.0702-23.8784-9.5551-45.5371-25.1716-61.2483-15.6176-15.7119-37.2203-25.4685-61.1015-25.5402z" class="fil0"/>
    <path fill-rule="nonzero" d="M388.546 464.849h.0028v.011c25.4353.0768 48.4298 10.4538 65.0407 27.165 16.6097 16.7104 26.8472 39.7645 26.7728 65.1971h.0111v.006l-.0001.0027h-.011c-.0768 25.4345-10.4526 48.4291-27.1638 65.0407-16.7096 16.6105-39.7633 26.8488-65.1967 26.7744v.0111h-.0087v-.0111c-25.4365-.0768-48.431-10.4538-65.0419-27.165-16.6093-16.7104-26.8468-39.7645-26.7724-65.1971h-.0111v-.0087l.0111.0001c.0767-25.4346 10.4522-48.4291 27.1634-65.0408 16.7096-16.6105 39.7637-26.8488 65.1979-26.7744v-.011h.0059zm-.0138 5.568-.0001.0111h-.0087l.0001-.0111c-23.8801-.0701-45.5388 9.556-61.2491 25.1732-15.712 15.6183-25.4669 37.2211-25.5386 61.1015l.011.0001v.0087l-.0111-.0001c-.0701 23.8785 9.5552 45.5372 25.1712 61.2484 15.6176 15.7119 37.2204 25.4684 61.1028 25.5401v-.011h.0087v.0111c23.8793.0701 45.5375-9.556 61.2479-25.1732 15.712-15.6184 25.4673-37.2212 25.539-61.1016h-.0111v-.0028l.0001-.0059h.011c.0702-23.8785-9.5552-45.5371-25.1716-61.2483-15.6175-15.712-37.2203-25.4685-61.1015-25.5402z" class="fil1"/>
    <path d="M391.688 669.394c42.0428-5.3555 89.4026-29.5043 113.473-73.3224-13.9131 34.0268-41.6652 77.22-113.509 85.2923.012-3.9902-3.922-11.4657.0358-11.9699h.0002zM218.315 495.465l-.5104 168.455c-.0074 2.6204-4.5853 4.7436-10.1836 4.7295-5.5941-.017-10.1665-2.1753-10.1551-4.7845l.5009-168.456c-9.542-4.5524-16.2336-15.2757-16.1943-27.7566.0345-11.713 5.9808-21.8413 14.6194-26.7553l-.1069 37.1162 5.8789.0176.1214-39.5447c.8365-.2172 1.6908-.3924 2.557-.5198l-.1189 40.0738 5.8743.0182.1186-40.2032c.6931.0721 1.3741.1743 2.05.3055l-.1225 39.9049 5.8789.0175.1136-37.9503c9.4562 4.5932 16.0699 15.2668 16.0369 27.6785-.0396 12.4786-6.79 23.1559-16.3582 27.6536v.0001zm339.559 42.65-.3788 126.823c-.0078 2.616 4.5634 4.77 10.1588 4.7867 5.5953.0167 10.1754-2.11 10.1872-4.7259.3217-72.3118-.3117-144.717.6481-217.015 1.0234-2.0316-19.3651 12.1498-24.5063 30.446-3.0841 22.6135 1.6496 48.0398 3.891 59.6851v.0001zm79.408-41.438-.5032 168.453c-.0079 2.616-4.5919 4.7425-10.1872 4.7258-5.5954-.0167-10.1666-2.1706-10.1588-4.7866l.5032-168.453c-9.5435-4.5523-16.2314-15.2751-16.194-27.7563.0494-16.5712 11.9342-29.9747 26.5393-29.9311 14.6052.0436 26.4096 13.5179 26.3602 30.0891-.0374 12.4812-6.7891 23.1638-16.3595 27.6591z" class="fil2"/>
  </g>
</svg>